<mxfile host="app.diagrams.net" agent="Mozilla/5.0 (Windows NT 10.0; Win64; x64) AppleWebKit/537.36 (KHTML, like Gecko) Chrome/128.0.0.0 Safari/537.36" version="24.7.10">
  <diagram name="Page-1" id="hJWBBYOkZm1Py5gKTgX2">
    <mxGraphModel dx="5608" dy="3312" grid="1" gridSize="10" guides="1" tooltips="1" connect="1" arrows="1" fold="1" page="1" pageScale="1" pageWidth="850" pageHeight="1100" math="0" shadow="0">
      <root>
        <mxCell id="0" />
        <mxCell id="1" parent="0" />
        <mxCell id="gpkW7kSRFp9-6F2mUtem-39" value="" style="endArrow=none;html=1;rounded=0;" parent="1" edge="1">
          <mxGeometry width="50" height="50" relative="1" as="geometry">
            <mxPoint x="454" y="-678" as="sourcePoint" />
            <mxPoint x="474" y="-718" as="targetPoint" />
          </mxGeometry>
        </mxCell>
        <mxCell id="gpkW7kSRFp9-6F2mUtem-40" value=".next_pc" style="text;html=1;align=center;verticalAlign=middle;whiteSpace=wrap;rounded=0;" parent="1" vertex="1">
          <mxGeometry x="365" y="-728" width="60" height="30" as="geometry" />
        </mxCell>
        <mxCell id="gpkW7kSRFp9-6F2mUtem-42" value="out" style="text;html=1;align=center;verticalAlign=middle;whiteSpace=wrap;rounded=0;" parent="1" vertex="1">
          <mxGeometry x="485" y="-718" width="60" height="20" as="geometry" />
        </mxCell>
        <mxCell id="gpkW7kSRFp9-6F2mUtem-46" value="" style="shape=link;html=1;rounded=0;" parent="1" edge="1">
          <mxGeometry width="100" relative="1" as="geometry">
            <mxPoint x="545" y="-658" as="sourcePoint" />
            <mxPoint x="545" y="-808" as="targetPoint" />
          </mxGeometry>
        </mxCell>
        <mxCell id="gpkW7kSRFp9-6F2mUtem-47" value="" style="endArrow=classic;html=1;rounded=0;" parent="1" edge="1">
          <mxGeometry width="50" height="50" relative="1" as="geometry">
            <mxPoint x="312" y="-783.21" as="sourcePoint" />
            <mxPoint x="544" y="-783.21" as="targetPoint" />
          </mxGeometry>
        </mxCell>
        <mxCell id="gpkW7kSRFp9-6F2mUtem-48" value="valid_o" style="text;html=1;align=center;verticalAlign=middle;whiteSpace=wrap;rounded=0;" parent="1" vertex="1">
          <mxGeometry x="475" y="-808" width="60" height="30" as="geometry" />
        </mxCell>
        <mxCell id="gpkW7kSRFp9-6F2mUtem-49" value="&lt;div&gt;out = in;&lt;br&gt;&lt;br&gt;&lt;/div&gt;&lt;div&gt;if (flush_req)&lt;br&gt;&lt;/div&gt;&amp;nbsp;out = 0;" style="ellipse;whiteSpace=wrap;html=1;aspect=fixed;" parent="1" vertex="1">
          <mxGeometry x="222" y="-827.92" width="90" height="90" as="geometry" />
        </mxCell>
        <mxCell id="gpkW7kSRFp9-6F2mUtem-54" value="" style="shape=link;html=1;rounded=0;" parent="1" edge="1">
          <mxGeometry width="100" relative="1" as="geometry">
            <mxPoint x="-295" y="-468" as="sourcePoint" />
            <mxPoint x="-295" y="-838" as="targetPoint" />
          </mxGeometry>
        </mxCell>
        <mxCell id="gpkW7kSRFp9-6F2mUtem-82" value="" style="endArrow=none;html=1;rounded=0;entryX=0.007;entryY=0.47;entryDx=0;entryDy=0;entryPerimeter=0;" parent="1" target="gpkW7kSRFp9-6F2mUtem-49" edge="1">
          <mxGeometry width="50" height="50" relative="1" as="geometry">
            <mxPoint x="-295" y="-788" as="sourcePoint" />
            <mxPoint x="-85" y="-968" as="targetPoint" />
          </mxGeometry>
        </mxCell>
        <mxCell id="gpkW7kSRFp9-6F2mUtem-83" value="valid_i" style="text;html=1;align=center;verticalAlign=middle;whiteSpace=wrap;rounded=0;" parent="1" vertex="1">
          <mxGeometry x="-285" y="-818" width="60" height="30" as="geometry" />
        </mxCell>
        <mxCell id="gpkW7kSRFp9-6F2mUtem-85" value="" style="endArrow=none;html=1;rounded=0;" parent="1" edge="1">
          <mxGeometry width="50" height="50" relative="1" as="geometry">
            <mxPoint x="545" y="-808" as="sourcePoint" />
            <mxPoint x="545" y="-868" as="targetPoint" />
          </mxGeometry>
        </mxCell>
        <mxCell id="gpkW7kSRFp9-6F2mUtem-87" value="stall" style="text;html=1;align=center;verticalAlign=middle;whiteSpace=wrap;rounded=0;" parent="1" vertex="1">
          <mxGeometry x="495" y="-848" width="60" height="30" as="geometry" />
        </mxCell>
        <mxCell id="gpkW7kSRFp9-6F2mUtem-88" value="" style="endArrow=none;html=1;rounded=0;" parent="1" edge="1">
          <mxGeometry width="50" height="50" relative="1" as="geometry">
            <mxPoint x="-295" y="-837.92" as="sourcePoint" />
            <mxPoint x="-295" y="-897.92" as="targetPoint" />
          </mxGeometry>
        </mxCell>
        <mxCell id="gpkW7kSRFp9-6F2mUtem-89" value="stall" style="text;html=1;align=center;verticalAlign=middle;whiteSpace=wrap;rounded=0;" parent="1" vertex="1">
          <mxGeometry x="-345" y="-877.92" width="60" height="30" as="geometry" />
        </mxCell>
        <mxCell id="gpkW7kSRFp9-6F2mUtem-91" value="insn" style="text;html=1;align=center;verticalAlign=middle;whiteSpace=wrap;rounded=0;" parent="1" vertex="1">
          <mxGeometry x="-275" y="-609.9200000000001" width="60" height="30" as="geometry" />
        </mxCell>
        <mxCell id="gpkW7kSRFp9-6F2mUtem-92" value="" style="endArrow=none;html=1;rounded=0;fontStyle=4" parent="1" edge="1">
          <mxGeometry width="50" height="50" relative="1" as="geometry">
            <mxPoint x="-215" y="-560.37" as="sourcePoint" />
            <mxPoint x="-195" y="-600.37" as="targetPoint" />
          </mxGeometry>
        </mxCell>
        <mxCell id="gpkW7kSRFp9-6F2mUtem-98" value="" style="endArrow=none;html=1;rounded=0;" parent="1" edge="1">
          <mxGeometry width="50" height="50" relative="1" as="geometry">
            <mxPoint x="-185" y="-288" as="sourcePoint" />
            <mxPoint x="-185" y="-578" as="targetPoint" />
          </mxGeometry>
        </mxCell>
        <mxCell id="gpkW7kSRFp9-6F2mUtem-105" value="" style="endArrow=none;html=1;rounded=0;" parent="1" edge="1">
          <mxGeometry width="50" height="50" relative="1" as="geometry">
            <mxPoint x="435" y="-698" as="sourcePoint" />
            <mxPoint x="435" y="-308" as="targetPoint" />
          </mxGeometry>
        </mxCell>
        <mxCell id="gpkW7kSRFp9-6F2mUtem-114" value=".pc_increment" style="text;html=1;align=center;verticalAlign=middle;whiteSpace=wrap;rounded=0;" parent="1" vertex="1">
          <mxGeometry x="-155" y="-407.88" width="60" height="19.92" as="geometry" />
        </mxCell>
        <mxCell id="gpkW7kSRFp9-6F2mUtem-115" value="" style="endArrow=none;html=1;rounded=0;" parent="1" edge="1">
          <mxGeometry width="50" height="50" relative="1" as="geometry">
            <mxPoint x="-185" y="-381.93" as="sourcePoint" />
            <mxPoint x="435" y="-371.92999999999995" as="targetPoint" />
          </mxGeometry>
        </mxCell>
        <mxCell id="gpkW7kSRFp9-6F2mUtem-123" value="" style="endArrow=none;html=1;rounded=0;" parent="1" edge="1">
          <mxGeometry width="50" height="50" relative="1" as="geometry">
            <mxPoint x="-185" y="-339.8399999999999" as="sourcePoint" />
            <mxPoint x="435" y="-329.8399999999999" as="targetPoint" />
          </mxGeometry>
        </mxCell>
        <mxCell id="gpkW7kSRFp9-6F2mUtem-124" value=".link" style="text;html=1;align=center;verticalAlign=middle;whiteSpace=wrap;rounded=0;" parent="1" vertex="1">
          <mxGeometry x="-185" y="-363.91999999999996" width="60" height="20" as="geometry" />
        </mxCell>
        <mxCell id="gpkW7kSRFp9-6F2mUtem-125" value="" style="endArrow=none;html=1;rounded=0;" parent="1" edge="1">
          <mxGeometry width="50" height="50" relative="1" as="geometry">
            <mxPoint x="-185" y="-294.91999999999996" as="sourcePoint" />
            <mxPoint x="435" y="-284.91999999999996" as="targetPoint" />
          </mxGeometry>
        </mxCell>
        <mxCell id="gpkW7kSRFp9-6F2mUtem-126" value=".common" style="text;html=1;align=center;verticalAlign=middle;whiteSpace=wrap;rounded=0;" parent="1" vertex="1">
          <mxGeometry x="-175" y="-313.91999999999996" width="60" height="20" as="geometry" />
        </mxCell>
        <mxCell id="gpkW7kSRFp9-6F2mUtem-129" value=".trap_cause" style="text;html=1;align=center;verticalAlign=middle;whiteSpace=wrap;rounded=0;" parent="1" vertex="1">
          <mxGeometry x="353" y="-560.37" width="60" height="12.09" as="geometry" />
        </mxCell>
        <mxCell id="gpkW7kSRFp9-6F2mUtem-130" value=".writeback" style="text;html=1;align=center;verticalAlign=middle;whiteSpace=wrap;rounded=0;" parent="1" vertex="1">
          <mxGeometry x="353" y="-341.92999999999995" width="52" height="2.01" as="geometry" />
        </mxCell>
        <mxCell id="gpkW7kSRFp9-6F2mUtem-131" value="&lt;div&gt;.common&lt;/div&gt;" style="text;html=1;align=center;verticalAlign=middle;whiteSpace=wrap;rounded=0;" parent="1" vertex="1">
          <mxGeometry x="345" y="-303.92999999999995" width="60" height="12.09" as="geometry" />
        </mxCell>
        <mxCell id="gpkW7kSRFp9-6F2mUtem-133" value="&lt;font style=&quot;font-size: 36px;&quot;&gt;BRANCH2&lt;br&gt;&quot;Jump&quot;&lt;/font&gt;" style="text;html=1;align=center;verticalAlign=middle;whiteSpace=wrap;rounded=0;" parent="1" vertex="1">
          <mxGeometry x="-75" y="-995" width="360" height="30" as="geometry" />
        </mxCell>
        <mxCell id="gpkW7kSRFp9-6F2mUtem-135" value="&lt;font style=&quot;font-size: 36px;&quot;&gt;BRANCH1&lt;br&gt;&quot;Condition &amp;amp; target&quot;&lt;/font&gt;" style="text;html=1;align=center;verticalAlign=middle;whiteSpace=wrap;rounded=0;" parent="1" vertex="1">
          <mxGeometry x="-835" y="-995" width="360" height="30" as="geometry" />
        </mxCell>
        <mxCell id="Zucph9kWZfhHKC2yXSaP-2" value="" style="endArrow=none;html=1;rounded=0;" parent="1" edge="1">
          <mxGeometry width="50" height="50" relative="1" as="geometry">
            <mxPoint x="315" y="-538" as="sourcePoint" />
            <mxPoint x="432" y="-538.28" as="targetPoint" />
          </mxGeometry>
        </mxCell>
        <mxCell id="Zucph9kWZfhHKC2yXSaP-3" value="EXC_INSN_ADDR_MISALIGNED" style="text;html=1;align=center;verticalAlign=middle;whiteSpace=wrap;rounded=0;" parent="1" vertex="1">
          <mxGeometry x="195" y="-548.28" width="60" height="10" as="geometry" />
        </mxCell>
        <mxCell id="Zucph9kWZfhHKC2yXSaP-21" value="!=" style="ellipse;whiteSpace=wrap;html=1;aspect=fixed;" parent="1" vertex="1">
          <mxGeometry x="232" y="-631.92" width="80" height="80" as="geometry" />
        </mxCell>
        <mxCell id="Zucph9kWZfhHKC2yXSaP-22" value="final_pc" style="shape=trapezoid;perimeter=trapezoidPerimeter;whiteSpace=wrap;html=1;fixedSize=1;direction=south;" parent="1" vertex="1">
          <mxGeometry x="102" y="-760.8399999999999" width="60" height="120" as="geometry" />
        </mxCell>
        <mxCell id="Zucph9kWZfhHKC2yXSaP-23" value="" style="endArrow=classic;html=1;rounded=0;" parent="1" edge="1">
          <mxGeometry width="50" height="50" relative="1" as="geometry">
            <mxPoint x="162" y="-701.08" as="sourcePoint" />
            <mxPoint x="545" y="-698" as="targetPoint" />
          </mxGeometry>
        </mxCell>
        <mxCell id="Zucph9kWZfhHKC2yXSaP-24" value="" style="endArrow=none;html=1;rounded=0;entryX=0.043;entryY=0.328;entryDx=0;entryDy=0;entryPerimeter=0;" parent="1" target="Zucph9kWZfhHKC2yXSaP-21" edge="1">
          <mxGeometry width="50" height="50" relative="1" as="geometry">
            <mxPoint x="182" y="-606" as="sourcePoint" />
            <mxPoint x="242" y="-606.08" as="targetPoint" />
          </mxGeometry>
        </mxCell>
        <mxCell id="Zucph9kWZfhHKC2yXSaP-25" value="" style="endArrow=none;html=1;rounded=0;" parent="1" edge="1">
          <mxGeometry width="50" height="50" relative="1" as="geometry">
            <mxPoint x="183.28999999999996" y="-603.75" as="sourcePoint" />
            <mxPoint x="182" y="-698" as="targetPoint" />
          </mxGeometry>
        </mxCell>
        <mxCell id="Zucph9kWZfhHKC2yXSaP-26" value="" style="endArrow=none;html=1;rounded=0;" parent="1" edge="1">
          <mxGeometry width="50" height="50" relative="1" as="geometry">
            <mxPoint x="312" y="-594.1400000000001" as="sourcePoint" />
            <mxPoint x="435" y="-594" as="targetPoint" />
          </mxGeometry>
        </mxCell>
        <mxCell id="Zucph9kWZfhHKC2yXSaP-27" value="" style="shape=or;whiteSpace=wrap;html=1;" parent="1" vertex="1">
          <mxGeometry x="172" y="-505" width="60" height="80" as="geometry" />
        </mxCell>
        <mxCell id="Zucph9kWZfhHKC2yXSaP-28" value="!= 0" style="ellipse;whiteSpace=wrap;html=1;aspect=fixed;" parent="1" vertex="1">
          <mxGeometry x="41" y="-494.91999999999985" width="80" height="80" as="geometry" />
        </mxCell>
        <mxCell id="Zucph9kWZfhHKC2yXSaP-29" value="" style="endArrow=none;html=1;rounded=0;entryX=0.94;entryY=0.617;entryDx=0;entryDy=0;entryPerimeter=0;" parent="1" target="Zucph9kWZfhHKC2yXSaP-22" edge="1">
          <mxGeometry width="50" height="50" relative="1" as="geometry">
            <mxPoint x="125" y="-498" as="sourcePoint" />
            <mxPoint x="129.71000000000004" y="-649.08" as="targetPoint" />
          </mxGeometry>
        </mxCell>
        <mxCell id="Zucph9kWZfhHKC2yXSaP-30" value="" style="endArrow=none;html=1;rounded=0;entryX=0.043;entryY=0.328;entryDx=0;entryDy=0;entryPerimeter=0;" parent="1" edge="1">
          <mxGeometry width="50" height="50" relative="1" as="geometry">
            <mxPoint x="121" y="-453.1" as="sourcePoint" />
            <mxPoint x="174" y="-453.1" as="targetPoint" />
          </mxGeometry>
        </mxCell>
        <mxCell id="Zucph9kWZfhHKC2yXSaP-31" value="" style="endArrow=none;html=1;rounded=0;" parent="1" edge="1">
          <mxGeometry width="50" height="50" relative="1" as="geometry">
            <mxPoint x="125" y="-495" as="sourcePoint" />
            <mxPoint x="172" y="-494.9200000000001" as="targetPoint" />
          </mxGeometry>
        </mxCell>
        <mxCell id="Zucph9kWZfhHKC2yXSaP-32" value="" style="endArrow=none;html=1;rounded=0;entryX=0.043;entryY=0.328;entryDx=0;entryDy=0;entryPerimeter=0;" parent="1" edge="1">
          <mxGeometry width="50" height="50" relative="1" as="geometry">
            <mxPoint x="-35" y="-453" as="sourcePoint" />
            <mxPoint x="41" y="-453.1" as="targetPoint" />
          </mxGeometry>
        </mxCell>
        <mxCell id="Zucph9kWZfhHKC2yXSaP-33" value="" style="endArrow=none;html=1;rounded=0;fontStyle=4" parent="1" edge="1">
          <mxGeometry width="50" height="50" relative="1" as="geometry">
            <mxPoint x="-28" y="-435.91999999999985" as="sourcePoint" />
            <mxPoint x="-8" y="-475.91999999999985" as="targetPoint" />
          </mxGeometry>
        </mxCell>
        <mxCell id="Zucph9kWZfhHKC2yXSaP-34" value="[1:0]" style="text;html=1;align=center;verticalAlign=middle;whiteSpace=wrap;rounded=0;" parent="1" vertex="1">
          <mxGeometry x="2" y="-470.45000000000005" width="31" height="4.9" as="geometry" />
        </mxCell>
        <mxCell id="Zucph9kWZfhHKC2yXSaP-35" value=".&lt;span style=&quot;white-space: pre;&quot;&gt;jump&#x9;&lt;/span&gt;" style="text;html=1;align=center;verticalAlign=middle;whiteSpace=wrap;rounded=0;" parent="1" vertex="1">
          <mxGeometry x="353" y="-615.46" width="60" height="15.08" as="geometry" />
        </mxCell>
        <mxCell id="Zucph9kWZfhHKC2yXSaP-39" value="" style="endArrow=none;html=1;rounded=0;" parent="1" edge="1">
          <mxGeometry width="50" height="50" relative="1" as="geometry">
            <mxPoint x="335" y="-498" as="sourcePoint" />
            <mxPoint x="335" y="-698" as="targetPoint" />
          </mxGeometry>
        </mxCell>
        <mxCell id="Zucph9kWZfhHKC2yXSaP-40" value=".trap_value" style="text;html=1;align=center;verticalAlign=middle;whiteSpace=wrap;rounded=0;" parent="1" vertex="1">
          <mxGeometry x="353" y="-517.9200000000001" width="60" height="12.09" as="geometry" />
        </mxCell>
        <mxCell id="Zucph9kWZfhHKC2yXSaP-41" value="" style="endArrow=none;html=1;rounded=0;" parent="1" edge="1">
          <mxGeometry width="50" height="50" relative="1" as="geometry">
            <mxPoint x="335" y="-501" as="sourcePoint" />
            <mxPoint x="433.5" y="-501.1199999999999" as="targetPoint" />
          </mxGeometry>
        </mxCell>
        <mxCell id="Zucph9kWZfhHKC2yXSaP-42" value=".trap" style="text;html=1;align=center;verticalAlign=middle;whiteSpace=wrap;rounded=0;" parent="1" vertex="1">
          <mxGeometry x="335" y="-469.0899999999999" width="60" height="2.17" as="geometry" />
        </mxCell>
        <mxCell id="Zucph9kWZfhHKC2yXSaP-43" value="" style="endArrow=none;html=1;rounded=0;exitX=1;exitY=0.5;exitDx=0;exitDy=0;exitPerimeter=0;" parent="1" source="Zucph9kWZfhHKC2yXSaP-27" edge="1">
          <mxGeometry width="50" height="50" relative="1" as="geometry">
            <mxPoint x="235" y="-458" as="sourcePoint" />
            <mxPoint x="435.25" y="-458.0899999999999" as="targetPoint" />
          </mxGeometry>
        </mxCell>
        <mxCell id="Zucph9kWZfhHKC2yXSaP-44" value=".result" style="text;html=1;align=center;verticalAlign=middle;whiteSpace=wrap;rounded=0;" parent="1" vertex="1">
          <mxGeometry x="335" y="-390.51000000000005" width="60" height="2.17" as="geometry" />
        </mxCell>
        <mxCell id="Zucph9kWZfhHKC2yXSaP-46" value="" style="endArrow=none;html=1;rounded=0;entryX=0.043;entryY=0.328;entryDx=0;entryDy=0;entryPerimeter=0;" parent="1" edge="1">
          <mxGeometry width="50" height="50" relative="1" as="geometry">
            <mxPoint x="-295" y="-738" as="sourcePoint" />
            <mxPoint x="102" y="-738" as="targetPoint" />
          </mxGeometry>
        </mxCell>
        <mxCell id="Zucph9kWZfhHKC2yXSaP-47" value="" style="endArrow=none;html=1;rounded=0;" parent="1" edge="1">
          <mxGeometry width="50" height="50" relative="1" as="geometry">
            <mxPoint x="-35" y="-448" as="sourcePoint" />
            <mxPoint x="-35" y="-738" as="targetPoint" />
          </mxGeometry>
        </mxCell>
        <mxCell id="Zucph9kWZfhHKC2yXSaP-50" value="" style="endArrow=none;html=1;rounded=0;entryX=0.043;entryY=0.328;entryDx=0;entryDy=0;entryPerimeter=0;" parent="1" edge="1">
          <mxGeometry width="50" height="50" relative="1" as="geometry">
            <mxPoint x="-295" y="-578" as="sourcePoint" />
            <mxPoint x="232" y="-577.9200000000001" as="targetPoint" />
          </mxGeometry>
        </mxCell>
        <mxCell id="Zucph9kWZfhHKC2yXSaP-51" value=".predicted" style="text;html=1;align=center;verticalAlign=middle;whiteSpace=wrap;rounded=0;" parent="1" vertex="1">
          <mxGeometry x="-175" y="-599.9200000000001" width="60" height="20" as="geometry" />
        </mxCell>
        <mxCell id="Zucph9kWZfhHKC2yXSaP-54" value="" style="endArrow=none;html=1;rounded=0;" parent="1" edge="1">
          <mxGeometry width="50" height="50" relative="1" as="geometry">
            <mxPoint x="-65" y="-378" as="sourcePoint" />
            <mxPoint x="-65" y="-668" as="targetPoint" />
          </mxGeometry>
        </mxCell>
        <mxCell id="Zucph9kWZfhHKC2yXSaP-55" value="" style="endArrow=none;html=1;rounded=0;entryX=0.043;entryY=0.328;entryDx=0;entryDy=0;entryPerimeter=0;" parent="1" edge="1">
          <mxGeometry width="50" height="50" relative="1" as="geometry">
            <mxPoint x="-65" y="-668" as="sourcePoint" />
            <mxPoint x="102" y="-668" as="targetPoint" />
          </mxGeometry>
        </mxCell>
        <mxCell id="Zucph9kWZfhHKC2yXSaP-56" value="target" style="text;html=1;align=center;verticalAlign=middle;whiteSpace=wrap;rounded=0;" parent="1" vertex="1">
          <mxGeometry x="-285" y="-768" width="60" height="30" as="geometry" />
        </mxCell>
        <mxCell id="Zucph9kWZfhHKC2yXSaP-57" value="&lt;div&gt;taken&lt;/div&gt;&lt;div&gt;&lt;br&gt;&lt;/div&gt;" style="text;html=1;align=center;verticalAlign=middle;whiteSpace=wrap;rounded=0;" parent="1" vertex="1">
          <mxGeometry x="-285" y="-661.9200000000001" width="60" height="30" as="geometry" />
        </mxCell>
        <mxCell id="Zucph9kWZfhHKC2yXSaP-58" value="" style="endArrow=none;html=1;rounded=0;" parent="1" edge="1">
          <mxGeometry width="50" height="50" relative="1" as="geometry">
            <mxPoint x="-299" y="-631.9200000000001" as="sourcePoint" />
            <mxPoint x="121" y="-631.9200000000001" as="targetPoint" />
          </mxGeometry>
        </mxCell>
        <mxCell id="Zucph9kWZfhHKC2yXSaP-61" value="&lt;div&gt;==&lt;/div&gt;" style="ellipse;whiteSpace=wrap;html=1;aspect=fixed;" parent="1" vertex="1">
          <mxGeometry x="-805" y="-756.5899999999999" width="80" height="80" as="geometry" />
        </mxCell>
        <mxCell id="Zucph9kWZfhHKC2yXSaP-62" value="&lt;div&gt;&amp;lt;&lt;br&gt;(unsigned)&lt;br&gt;&lt;/div&gt;" style="ellipse;whiteSpace=wrap;html=1;aspect=fixed;" parent="1" vertex="1">
          <mxGeometry x="-805" y="-650.7599999999999" width="80" height="80" as="geometry" />
        </mxCell>
        <mxCell id="Zucph9kWZfhHKC2yXSaP-63" value="taken" style="shape=trapezoid;perimeter=trapezoidPerimeter;whiteSpace=wrap;html=1;fixedSize=1;direction=south;" parent="1" vertex="1">
          <mxGeometry x="-685" y="-760.8399999999999" width="60" height="197.86" as="geometry" />
        </mxCell>
        <mxCell id="Zucph9kWZfhHKC2yXSaP-65" value="" style="endArrow=none;html=1;rounded=0;exitX=1;exitY=0.5;exitDx=0;exitDy=0;entryX=0.75;entryY=1;entryDx=0;entryDy=0;" parent="1" source="Zucph9kWZfhHKC2yXSaP-62" target="Zucph9kWZfhHKC2yXSaP-63" edge="1">
          <mxGeometry width="50" height="50" relative="1" as="geometry">
            <mxPoint x="-715" y="-585.76" as="sourcePoint" />
            <mxPoint x="-685" y="-585.5699999999999" as="targetPoint" />
          </mxGeometry>
        </mxCell>
        <mxCell id="Zucph9kWZfhHKC2yXSaP-67" value="" style="endArrow=none;html=1;rounded=0;" parent="1" edge="1">
          <mxGeometry width="50" height="50" relative="1" as="geometry">
            <mxPoint x="-655" y="-530.8399999999999" as="sourcePoint" />
            <mxPoint x="-655.6399999999999" y="-570.7699999999999" as="targetPoint" />
          </mxGeometry>
        </mxCell>
        <mxCell id="Zucph9kWZfhHKC2yXSaP-72" value="" style="endArrow=none;html=1;rounded=0;" parent="1" edge="1">
          <mxGeometry width="50" height="50" relative="1" as="geometry">
            <mxPoint x="-1178" y="-620.17" as="sourcePoint" />
            <mxPoint x="-1158" y="-660.17" as="targetPoint" />
          </mxGeometry>
        </mxCell>
        <mxCell id="Zucph9kWZfhHKC2yXSaP-73" value="[31]" style="text;html=1;align=center;verticalAlign=middle;whiteSpace=wrap;rounded=0;" parent="1" vertex="1">
          <mxGeometry x="-1148" y="-672.67" width="40" height="30" as="geometry" />
        </mxCell>
        <mxCell id="Zucph9kWZfhHKC2yXSaP-76" value="" style="endArrow=none;html=1;rounded=0;exitX=0;exitY=1;exitDx=0;exitDy=0;" parent="1" source="Zucph9kWZfhHKC2yXSaP-85" edge="1">
          <mxGeometry width="50" height="50" relative="1" as="geometry">
            <mxPoint x="-1148" y="-512.7599999999999" as="sourcePoint" />
            <mxPoint x="-1148" y="-644.76" as="targetPoint" />
          </mxGeometry>
        </mxCell>
        <mxCell id="Zucph9kWZfhHKC2yXSaP-77" value="" style="endArrow=none;html=1;rounded=0;" parent="1" edge="1">
          <mxGeometry width="50" height="50" relative="1" as="geometry">
            <mxPoint x="-1148" y="-568.8399999999999" as="sourcePoint" />
            <mxPoint x="-878" y="-570.7599999999999" as="targetPoint" />
          </mxGeometry>
        </mxCell>
        <mxCell id="Zucph9kWZfhHKC2yXSaP-78" value="" style="endArrow=none;html=1;rounded=0;exitX=1;exitY=0.5;exitDx=0;exitDy=0;entryX=0.043;entryY=0.29;entryDx=0;entryDy=0;entryPerimeter=0;" parent="1" source="Zucph9kWZfhHKC2yXSaP-127" target="Zucph9kWZfhHKC2yXSaP-62" edge="1">
          <mxGeometry width="50" height="50" relative="1" as="geometry">
            <mxPoint x="-945" y="-626.5499999999998" as="sourcePoint" />
            <mxPoint x="-835" y="-624.6699999999997" as="targetPoint" />
          </mxGeometry>
        </mxCell>
        <mxCell id="Zucph9kWZfhHKC2yXSaP-79" value="" style="endArrow=none;html=1;rounded=0;entryX=1;entryY=1;entryDx=0;entryDy=0;" parent="1" target="Zucph9kWZfhHKC2yXSaP-80" edge="1">
          <mxGeometry width="50" height="50" relative="1" as="geometry">
            <mxPoint x="-875" y="-570.8399999999999" as="sourcePoint" />
            <mxPoint x="-875" y="-620.8399999999999" as="targetPoint" />
          </mxGeometry>
        </mxCell>
        <mxCell id="Zucph9kWZfhHKC2yXSaP-80" value="[31]" style="text;html=1;align=center;verticalAlign=middle;whiteSpace=wrap;rounded=0;" parent="1" vertex="1">
          <mxGeometry x="-915" y="-645.79" width="40" height="18.08" as="geometry" />
        </mxCell>
        <mxCell id="Zucph9kWZfhHKC2yXSaP-81" value="&lt;div&gt;[30:0]&lt;/div&gt;" style="text;html=1;align=center;verticalAlign=middle;whiteSpace=wrap;rounded=0;" parent="1" vertex="1">
          <mxGeometry x="-918" y="-600.76" width="40" height="30" as="geometry" />
        </mxCell>
        <mxCell id="Zucph9kWZfhHKC2yXSaP-82" value="" style="endArrow=none;html=1;rounded=0;entryX=0;entryY=0.5;entryDx=0;entryDy=0;" parent="1" edge="1">
          <mxGeometry width="50" height="50" relative="1" as="geometry">
            <mxPoint x="-1185" y="-640.8399999999999" as="sourcePoint" />
            <mxPoint x="-1088" y="-642.76" as="targetPoint" />
          </mxGeometry>
        </mxCell>
        <mxCell id="Zucph9kWZfhHKC2yXSaP-85" value="&lt;div&gt;[30:0]&lt;/div&gt;" style="text;html=1;align=center;verticalAlign=middle;whiteSpace=wrap;rounded=0;" parent="1" vertex="1">
          <mxGeometry x="-1148" y="-598.76" width="40" height="30" as="geometry" />
        </mxCell>
        <mxCell id="Zucph9kWZfhHKC2yXSaP-86" value="" style="endArrow=none;html=1;rounded=0;" parent="1" edge="1">
          <mxGeometry width="50" height="50" relative="1" as="geometry">
            <mxPoint x="-865" y="-603.62" as="sourcePoint" />
            <mxPoint x="-845" y="-643.62" as="targetPoint" />
          </mxGeometry>
        </mxCell>
        <mxCell id="Zucph9kWZfhHKC2yXSaP-89" value="" style="endArrow=none;html=1;rounded=0;" parent="1" edge="1">
          <mxGeometry width="50" height="50" relative="1" as="geometry">
            <mxPoint x="-1178" y="-430.76" as="sourcePoint" />
            <mxPoint x="-1158" y="-470.76" as="targetPoint" />
          </mxGeometry>
        </mxCell>
        <mxCell id="Zucph9kWZfhHKC2yXSaP-90" value="[31]" style="text;html=1;align=center;verticalAlign=middle;whiteSpace=wrap;rounded=0;" parent="1" vertex="1">
          <mxGeometry x="-1148" y="-480.66999999999996" width="40" height="30" as="geometry" />
        </mxCell>
        <mxCell id="Zucph9kWZfhHKC2yXSaP-93" value="" style="endArrow=none;html=1;rounded=0;" parent="1" edge="1">
          <mxGeometry width="50" height="50" relative="1" as="geometry">
            <mxPoint x="-1148" y="-370.84000000000003" as="sourcePoint" />
            <mxPoint x="-1148" y="-452.76" as="targetPoint" />
          </mxGeometry>
        </mxCell>
        <mxCell id="Zucph9kWZfhHKC2yXSaP-94" value="" style="endArrow=none;html=1;rounded=0;" parent="1" edge="1">
          <mxGeometry width="50" height="50" relative="1" as="geometry">
            <mxPoint x="-1145" y="-368.7499999999999" as="sourcePoint" />
            <mxPoint x="-875" y="-370.66999999999973" as="targetPoint" />
          </mxGeometry>
        </mxCell>
        <mxCell id="Zucph9kWZfhHKC2yXSaP-95" value="" style="endArrow=none;html=1;rounded=0;exitX=1.013;exitY=0.545;exitDx=0;exitDy=0;exitPerimeter=0;" parent="1" source="Zucph9kWZfhHKC2yXSaP-124" edge="1">
          <mxGeometry width="50" height="50" relative="1" as="geometry">
            <mxPoint x="-918" y="-437.14999999999986" as="sourcePoint" />
            <mxPoint x="-838" y="-435.28" as="targetPoint" />
          </mxGeometry>
        </mxCell>
        <mxCell id="Zucph9kWZfhHKC2yXSaP-96" value="" style="endArrow=none;html=1;rounded=0;exitX=1;exitY=1;exitDx=0;exitDy=0;" parent="1" source="Zucph9kWZfhHKC2yXSaP-98" edge="1">
          <mxGeometry width="50" height="50" relative="1" as="geometry">
            <mxPoint x="-878" y="-367.84000000000003" as="sourcePoint" />
            <mxPoint x="-875" y="-440.8399999999999" as="targetPoint" />
          </mxGeometry>
        </mxCell>
        <mxCell id="Zucph9kWZfhHKC2yXSaP-97" value="[31]" style="text;html=1;align=center;verticalAlign=middle;whiteSpace=wrap;rounded=0;" parent="1" vertex="1">
          <mxGeometry x="-918" y="-462.15" width="40" height="18.08" as="geometry" />
        </mxCell>
        <mxCell id="Zucph9kWZfhHKC2yXSaP-98" value="&lt;div&gt;[30:0]&lt;/div&gt;" style="text;html=1;align=center;verticalAlign=middle;whiteSpace=wrap;rounded=0;" parent="1" vertex="1">
          <mxGeometry x="-915" y="-400.66999999999996" width="40" height="30" as="geometry" />
        </mxCell>
        <mxCell id="Zucph9kWZfhHKC2yXSaP-99" value="" style="endArrow=none;html=1;rounded=0;entryX=0;entryY=0.5;entryDx=0;entryDy=0;" parent="1" edge="1">
          <mxGeometry width="50" height="50" relative="1" as="geometry">
            <mxPoint x="-1225" y="-450.8399999999999" as="sourcePoint" />
            <mxPoint x="-1085" y="-450.76" as="targetPoint" />
          </mxGeometry>
        </mxCell>
        <mxCell id="Zucph9kWZfhHKC2yXSaP-102" value="&lt;div&gt;[30:0]&lt;/div&gt;" style="text;html=1;align=center;verticalAlign=middle;whiteSpace=wrap;rounded=0;" parent="1" vertex="1">
          <mxGeometry x="-1145" y="-398.66999999999996" width="40" height="30" as="geometry" />
        </mxCell>
        <mxCell id="Zucph9kWZfhHKC2yXSaP-103" value="" style="endArrow=none;html=1;rounded=0;" parent="1" edge="1">
          <mxGeometry width="50" height="50" relative="1" as="geometry">
            <mxPoint x="-868" y="-419.20000000000005" as="sourcePoint" />
            <mxPoint x="-848" y="-459.20000000000005" as="targetPoint" />
          </mxGeometry>
        </mxCell>
        <mxCell id="Zucph9kWZfhHKC2yXSaP-107" value="" style="endArrow=none;html=1;rounded=0;" parent="1" edge="1">
          <mxGeometry width="50" height="50" relative="1" as="geometry">
            <mxPoint x="-1105" y="-420.8399999999999" as="sourcePoint" />
            <mxPoint x="-1105" y="-610.8399999999999" as="targetPoint" />
          </mxGeometry>
        </mxCell>
        <mxCell id="Zucph9kWZfhHKC2yXSaP-109" value="" style="endArrow=none;html=1;rounded=0;entryX=0.114;entryY=0.789;entryDx=0;entryDy=0;entryPerimeter=0;" parent="1" target="Zucph9kWZfhHKC2yXSaP-124" edge="1">
          <mxGeometry width="50" height="50" relative="1" as="geometry">
            <mxPoint x="-1315" y="-417.8399999999999" as="sourcePoint" />
            <mxPoint x="-1105" y="-417.6299999999999" as="targetPoint" />
          </mxGeometry>
        </mxCell>
        <mxCell id="Zucph9kWZfhHKC2yXSaP-113" value="" style="endArrow=none;html=1;rounded=0;" parent="1" edge="1">
          <mxGeometry width="50" height="50" relative="1" as="geometry">
            <mxPoint x="-835" y="-430.8399999999999" as="sourcePoint" />
            <mxPoint x="-835" y="-580.8399999999999" as="targetPoint" />
          </mxGeometry>
        </mxCell>
        <mxCell id="Zucph9kWZfhHKC2yXSaP-114" value="" style="endArrow=none;html=1;rounded=0;entryX=0;entryY=1;entryDx=0;entryDy=0;" parent="1" target="Zucph9kWZfhHKC2yXSaP-62" edge="1">
          <mxGeometry width="50" height="50" relative="1" as="geometry">
            <mxPoint x="-835" y="-583.6299999999999" as="sourcePoint" />
            <mxPoint x="-805" y="-583.6799999999998" as="targetPoint" />
          </mxGeometry>
        </mxCell>
        <mxCell id="Zucph9kWZfhHKC2yXSaP-115" value="" style="endArrow=none;html=1;rounded=0;" parent="1" edge="1">
          <mxGeometry width="50" height="50" relative="1" as="geometry">
            <mxPoint x="-1186" y="-230.84000000000003" as="sourcePoint" />
            <mxPoint x="-1186" y="-730.8399999999999" as="targetPoint" />
          </mxGeometry>
        </mxCell>
        <mxCell id="Zucph9kWZfhHKC2yXSaP-116" value="" style="endArrow=none;html=1;rounded=0;entryX=0;entryY=0.336;entryDx=0;entryDy=0;entryPerimeter=0;" parent="1" edge="1">
          <mxGeometry width="50" height="50" relative="1" as="geometry">
            <mxPoint x="-1405" y="-732" as="sourcePoint" />
            <mxPoint x="-805" y="-731.81" as="targetPoint" />
          </mxGeometry>
        </mxCell>
        <mxCell id="Zucph9kWZfhHKC2yXSaP-117" value="" style="endArrow=none;html=1;rounded=0;entryX=0;entryY=0.336;entryDx=0;entryDy=0;entryPerimeter=0;" parent="1" edge="1">
          <mxGeometry width="50" height="50" relative="1" as="geometry">
            <mxPoint x="-1315" y="-700.8399999999999" as="sourcePoint" />
            <mxPoint x="-805" y="-701.81" as="targetPoint" />
          </mxGeometry>
        </mxCell>
        <mxCell id="Zucph9kWZfhHKC2yXSaP-118" value="" style="endArrow=none;html=1;rounded=0;" parent="1" edge="1">
          <mxGeometry width="50" height="50" relative="1" as="geometry">
            <mxPoint x="-1225" y="-450.8399999999999" as="sourcePoint" />
            <mxPoint x="-1225" y="-701.8499999999999" as="targetPoint" />
          </mxGeometry>
        </mxCell>
        <mxCell id="Zucph9kWZfhHKC2yXSaP-119" value="" style="endArrow=none;html=1;rounded=0;exitX=1;exitY=0.5;exitDx=0;exitDy=0;entryX=0.226;entryY=1.038;entryDx=0;entryDy=0;entryPerimeter=0;" parent="1" target="Zucph9kWZfhHKC2yXSaP-63" edge="1">
          <mxGeometry width="50" height="50" relative="1" as="geometry">
            <mxPoint x="-725" y="-717.7199999999999" as="sourcePoint" />
            <mxPoint x="-686" y="-720.8399999999999" as="targetPoint" />
          </mxGeometry>
        </mxCell>
        <mxCell id="Zucph9kWZfhHKC2yXSaP-120" value="base" style="shape=trapezoid;perimeter=trapezoidPerimeter;whiteSpace=wrap;html=1;fixedSize=1;direction=south;" parent="1" vertex="1">
          <mxGeometry x="-1145" y="-313.91999999999996" width="60" height="120" as="geometry" />
        </mxCell>
        <mxCell id="Zucph9kWZfhHKC2yXSaP-121" value="" style="endArrow=none;html=1;rounded=0;exitX=1;exitY=0.5;exitDx=0;exitDy=0;" parent="1" edge="1">
          <mxGeometry width="50" height="50" relative="1" as="geometry">
            <mxPoint x="-1184.5" y="-230.72000000000014" as="sourcePoint" />
            <mxPoint x="-1144.5" y="-230.84000000000003" as="targetPoint" />
          </mxGeometry>
        </mxCell>
        <mxCell id="Zucph9kWZfhHKC2yXSaP-124" value="^" style="ellipse;whiteSpace=wrap;html=1;aspect=fixed;" parent="1" vertex="1">
          <mxGeometry x="-1085" y="-480.66999999999996" width="80" height="80" as="geometry" />
        </mxCell>
        <mxCell id="Zucph9kWZfhHKC2yXSaP-127" value="^" style="ellipse;whiteSpace=wrap;html=1;aspect=fixed;" parent="1" vertex="1">
          <mxGeometry x="-1088" y="-667.66" width="80" height="80" as="geometry" />
        </mxCell>
        <mxCell id="Zucph9kWZfhHKC2yXSaP-129" value="" style="endArrow=none;html=1;rounded=0;entryX=0.055;entryY=0.747;entryDx=0;entryDy=0;entryPerimeter=0;" parent="1" edge="1">
          <mxGeometry width="50" height="50" relative="1" as="geometry">
            <mxPoint x="-1108" y="-606.7099999999998" as="sourcePoint" />
            <mxPoint x="-1084" y="-606.7099999999998" as="targetPoint" />
          </mxGeometry>
        </mxCell>
        <mxCell id="Zucph9kWZfhHKC2yXSaP-132" value="^" style="ellipse;whiteSpace=wrap;html=1;aspect=fixed;" parent="1" vertex="1">
          <mxGeometry x="-568" y="-678.76" width="80" height="80" as="geometry" />
        </mxCell>
        <mxCell id="Zucph9kWZfhHKC2yXSaP-133" value="" style="endArrow=none;html=1;rounded=0;exitX=1;exitY=0.5;exitDx=0;exitDy=0;entryX=0.038;entryY=0.25;entryDx=0;entryDy=0;entryPerimeter=0;" parent="1" target="Zucph9kWZfhHKC2yXSaP-132" edge="1">
          <mxGeometry width="50" height="50" relative="1" as="geometry">
            <mxPoint x="-625" y="-658.5600000000002" as="sourcePoint" />
            <mxPoint x="-585" y="-658.6800000000001" as="targetPoint" />
          </mxGeometry>
        </mxCell>
        <mxCell id="Zucph9kWZfhHKC2yXSaP-134" value="" style="shape=xor;whiteSpace=wrap;html=1;" parent="1" vertex="1">
          <mxGeometry x="-445" y="-672.67" width="60" height="80" as="geometry" />
        </mxCell>
        <mxCell id="Zucph9kWZfhHKC2yXSaP-135" value="" style="endArrow=none;html=1;rounded=0;exitX=1;exitY=0.5;exitDx=0;exitDy=0;entryX=0.038;entryY=0.25;entryDx=0;entryDy=0;entryPerimeter=0;" parent="1" edge="1">
          <mxGeometry width="50" height="50" relative="1" as="geometry">
            <mxPoint x="-495" y="-657.6300000000002" as="sourcePoint" />
            <mxPoint x="-435" y="-657.91" as="targetPoint" />
          </mxGeometry>
        </mxCell>
        <mxCell id="Zucph9kWZfhHKC2yXSaP-136" value="" style="endArrow=none;html=1;rounded=0;entryX=0.129;entryY=0.766;entryDx=0;entryDy=0;entryPerimeter=0;" parent="1" target="Zucph9kWZfhHKC2yXSaP-134" edge="1">
          <mxGeometry width="50" height="50" relative="1" as="geometry">
            <mxPoint x="-475" y="-610.8399999999999" as="sourcePoint" />
            <mxPoint x="-435" y="-614.16" as="targetPoint" />
          </mxGeometry>
        </mxCell>
        <mxCell id="Zucph9kWZfhHKC2yXSaP-137" value="" style="endArrow=none;html=1;rounded=0;entryX=0.129;entryY=0.766;entryDx=0;entryDy=0;entryPerimeter=0;" parent="1" edge="1">
          <mxGeometry width="50" height="50" relative="1" as="geometry">
            <mxPoint x="-605" y="-613.8399999999999" as="sourcePoint" />
            <mxPoint x="-561" y="-614.68" as="targetPoint" />
          </mxGeometry>
        </mxCell>
        <mxCell id="Zucph9kWZfhHKC2yXSaP-138" value="" style="endArrow=none;html=1;rounded=0;" parent="1" edge="1">
          <mxGeometry width="50" height="50" relative="1" as="geometry">
            <mxPoint x="-605" y="-340.84000000000003" as="sourcePoint" />
            <mxPoint x="-604.9999999999998" y="-615.6899999999998" as="targetPoint" />
          </mxGeometry>
        </mxCell>
        <mxCell id="Zucph9kWZfhHKC2yXSaP-139" value="" style="endArrow=none;html=1;rounded=0;" parent="1" edge="1">
          <mxGeometry width="50" height="50" relative="1" as="geometry">
            <mxPoint x="-475" y="-310.84000000000003" as="sourcePoint" />
            <mxPoint x="-475" y="-610.6899999999998" as="targetPoint" />
          </mxGeometry>
        </mxCell>
        <mxCell id="Zucph9kWZfhHKC2yXSaP-147" value="" style="endArrow=none;html=1;rounded=0;" parent="1" edge="1">
          <mxGeometry width="50" height="50" relative="1" as="geometry">
            <mxPoint x="-1345" y="-713.6799999999998" as="sourcePoint" />
            <mxPoint x="-1325" y="-753.6799999999998" as="targetPoint" />
          </mxGeometry>
        </mxCell>
        <mxCell id="Zucph9kWZfhHKC2yXSaP-148" value="&lt;div&gt;.rs1&lt;/div&gt;" style="text;html=1;align=center;verticalAlign=middle;whiteSpace=wrap;rounded=0;" parent="1" vertex="1">
          <mxGeometry x="-1315" y="-759.7599999999999" width="40" height="30" as="geometry" />
        </mxCell>
        <mxCell id="Zucph9kWZfhHKC2yXSaP-149" value="&lt;div&gt;insn&lt;br&gt;&lt;/div&gt;" style="text;html=1;align=center;verticalAlign=middle;whiteSpace=wrap;rounded=0;" parent="1" vertex="1">
          <mxGeometry x="-1405" y="-750.9199999999998" width="40" height="13" as="geometry" />
        </mxCell>
        <mxCell id="Zucph9kWZfhHKC2yXSaP-153" value="&lt;div&gt;.rs2&lt;/div&gt;" style="text;html=1;align=center;verticalAlign=middle;whiteSpace=wrap;rounded=0;" parent="1" vertex="1">
          <mxGeometry x="-1315" y="-729.7599999999999" width="40" height="30" as="geometry" />
        </mxCell>
        <mxCell id="Zucph9kWZfhHKC2yXSaP-155" value="" style="endArrow=none;html=1;rounded=0;" parent="1" edge="1">
          <mxGeometry width="50" height="50" relative="1" as="geometry">
            <mxPoint x="-1315.4761904761904" y="-540.8399999999999" as="sourcePoint" />
            <mxPoint x="-657" y="-530.8399999999999" as="targetPoint" />
          </mxGeometry>
        </mxCell>
        <mxCell id="Zucph9kWZfhHKC2yXSaP-156" value="&lt;div&gt;.cond&lt;/div&gt;" style="text;html=1;align=center;verticalAlign=middle;whiteSpace=wrap;rounded=0;" parent="1" vertex="1">
          <mxGeometry x="-1315" y="-570.7599999999999" width="40" height="30" as="geometry" />
        </mxCell>
        <mxCell id="Zucph9kWZfhHKC2yXSaP-157" value="&lt;div&gt;.cond_signed&lt;/div&gt;" style="text;html=1;align=center;verticalAlign=middle;whiteSpace=wrap;rounded=0;" parent="1" vertex="1">
          <mxGeometry x="-1295" y="-444.0699999999998" width="40" height="30" as="geometry" />
        </mxCell>
        <mxCell id="Zucph9kWZfhHKC2yXSaP-158" value="" style="endArrow=none;html=1;rounded=0;" parent="1" edge="1">
          <mxGeometry width="50" height="50" relative="1" as="geometry">
            <mxPoint x="-1315" y="-350.84000000000003" as="sourcePoint" />
            <mxPoint x="-605" y="-340.84000000000003" as="targetPoint" />
          </mxGeometry>
        </mxCell>
        <mxCell id="Zucph9kWZfhHKC2yXSaP-160" value="" style="endArrow=none;html=1;rounded=0;" parent="1" edge="1">
          <mxGeometry width="50" height="50" relative="1" as="geometry">
            <mxPoint x="-1312" y="-320.84000000000003" as="sourcePoint" />
            <mxPoint x="-475" y="-310.84000000000003" as="targetPoint" />
          </mxGeometry>
        </mxCell>
        <mxCell id="Zucph9kWZfhHKC2yXSaP-161" value="&lt;div&gt;.unconditional&lt;/div&gt;" style="text;html=1;align=center;verticalAlign=middle;whiteSpace=wrap;rounded=0;" parent="1" vertex="1">
          <mxGeometry x="-1285" y="-335.76999999999987" width="40" height="10" as="geometry" />
        </mxCell>
        <mxCell id="Zucph9kWZfhHKC2yXSaP-169" value="" style="endArrow=none;html=1;rounded=0;" parent="1" edge="1">
          <mxGeometry width="50" height="50" relative="1" as="geometry">
            <mxPoint x="-1315" y="-277.91999999999996" as="sourcePoint" />
            <mxPoint x="-1145" y="-278" as="targetPoint" />
          </mxGeometry>
        </mxCell>
        <mxCell id="Zucph9kWZfhHKC2yXSaP-170" value=".immediate" style="text;html=1;align=center;verticalAlign=middle;whiteSpace=wrap;rounded=0;" parent="1" vertex="1">
          <mxGeometry x="-1295" y="-203.91999999999996" width="40" height="10" as="geometry" />
        </mxCell>
        <mxCell id="Zucph9kWZfhHKC2yXSaP-175" value=".pc" style="text;html=1;align=center;verticalAlign=middle;whiteSpace=wrap;rounded=0;" parent="1" vertex="1">
          <mxGeometry x="-1315" y="-290.7600000000001" width="40" height="10" as="geometry" />
        </mxCell>
        <mxCell id="Zucph9kWZfhHKC2yXSaP-178" value="" style="endArrow=classic;html=1;rounded=0;" parent="1" edge="1">
          <mxGeometry width="50" height="50" relative="1" as="geometry">
            <mxPoint x="-383" y="-632.8" as="sourcePoint" />
            <mxPoint x="-295" y="-633" as="targetPoint" />
          </mxGeometry>
        </mxCell>
        <mxCell id="Zucph9kWZfhHKC2yXSaP-179" value="" style="endArrow=classic;html=1;rounded=0;" parent="1" edge="1">
          <mxGeometry width="50" height="50" relative="1" as="geometry">
            <mxPoint x="-365" y="-738" as="sourcePoint" />
            <mxPoint x="-297" y="-738" as="targetPoint" />
          </mxGeometry>
        </mxCell>
        <mxCell id="Zucph9kWZfhHKC2yXSaP-180" value=".negate" style="text;html=1;align=center;verticalAlign=middle;whiteSpace=wrap;rounded=0;" parent="1" vertex="1">
          <mxGeometry x="-1305" y="-368.66999999999985" width="40" height="10" as="geometry" />
        </mxCell>
        <mxCell id="Zucph9kWZfhHKC2yXSaP-181" value="" style="endArrow=none;html=1;rounded=0;" parent="1" edge="1">
          <mxGeometry width="50" height="50" relative="1" as="geometry">
            <mxPoint x="-1316" y="-148" as="sourcePoint" />
            <mxPoint x="-1315.5700000000002" y="-729.76" as="targetPoint" />
          </mxGeometry>
        </mxCell>
        <mxCell id="Zucph9kWZfhHKC2yXSaP-185" value="+" style="ellipse;whiteSpace=wrap;html=1;aspect=fixed;" parent="1" vertex="1">
          <mxGeometry x="-1025" y="-248" width="80" height="80" as="geometry" />
        </mxCell>
        <mxCell id="Zucph9kWZfhHKC2yXSaP-186" value="" style="endArrow=none;html=1;rounded=0;exitX=1;exitY=0.5;exitDx=0;exitDy=0;entryX=0;entryY=0;entryDx=0;entryDy=0;" parent="1" target="Zucph9kWZfhHKC2yXSaP-185" edge="1">
          <mxGeometry width="50" height="50" relative="1" as="geometry">
            <mxPoint x="-1085" y="-237.8800000000001" as="sourcePoint" />
            <mxPoint x="-1045" y="-238" as="targetPoint" />
          </mxGeometry>
        </mxCell>
        <mxCell id="Zucph9kWZfhHKC2yXSaP-187" value="" style="endArrow=none;html=1;rounded=0;entryX=0;entryY=0;entryDx=0;entryDy=0;" parent="1" edge="1">
          <mxGeometry width="50" height="50" relative="1" as="geometry">
            <mxPoint x="-1315" y="-186" as="sourcePoint" />
            <mxPoint x="-1016" y="-186.12" as="targetPoint" />
          </mxGeometry>
        </mxCell>
        <mxCell id="Zucph9kWZfhHKC2yXSaP-190" value="" style="endArrow=none;html=1;rounded=0;" parent="1" edge="1">
          <mxGeometry width="50" height="50" relative="1" as="geometry">
            <mxPoint x="-1315" y="-147.88" as="sourcePoint" />
            <mxPoint x="-1115" y="-148" as="targetPoint" />
          </mxGeometry>
        </mxCell>
        <mxCell id="Zucph9kWZfhHKC2yXSaP-191" value="" style="endArrow=none;html=1;rounded=0;" parent="1" edge="1">
          <mxGeometry width="50" height="50" relative="1" as="geometry">
            <mxPoint x="-1115" y="-148" as="sourcePoint" />
            <mxPoint x="-1115.29" y="-208" as="targetPoint" />
          </mxGeometry>
        </mxCell>
        <mxCell id="Zucph9kWZfhHKC2yXSaP-192" value=".relative" style="text;html=1;align=center;verticalAlign=middle;whiteSpace=wrap;rounded=0;" parent="1" vertex="1">
          <mxGeometry x="-1295" y="-193.91999999999996" width="20" height="65.92" as="geometry" />
        </mxCell>
        <mxCell id="Zucph9kWZfhHKC2yXSaP-193" value="" style="endArrow=none;html=1;rounded=0;" parent="1" edge="1">
          <mxGeometry width="50" height="50" relative="1" as="geometry">
            <mxPoint x="-365" y="-208" as="sourcePoint" />
            <mxPoint x="-365" y="-736.2599999999998" as="targetPoint" />
          </mxGeometry>
        </mxCell>
        <mxCell id="Zucph9kWZfhHKC2yXSaP-194" value="" style="endArrow=none;html=1;rounded=0;" parent="1" edge="1">
          <mxGeometry width="50" height="50" relative="1" as="geometry">
            <mxPoint x="-946.5" y="-213" as="sourcePoint" />
            <mxPoint x="-365" y="-208" as="targetPoint" />
          </mxGeometry>
        </mxCell>
        <mxCell id="Zucph9kWZfhHKC2yXSaP-195" value="" style="endArrow=none;html=1;rounded=0;" parent="1" edge="1">
          <mxGeometry width="50" height="50" relative="1" as="geometry">
            <mxPoint x="-1365" y="-108" as="sourcePoint" />
            <mxPoint x="-1364.5700000000002" y="-728" as="targetPoint" />
          </mxGeometry>
        </mxCell>
        <mxCell id="Zucph9kWZfhHKC2yXSaP-196" value="" style="endArrow=none;html=1;rounded=0;" parent="1" edge="1">
          <mxGeometry width="50" height="50" relative="1" as="geometry">
            <mxPoint x="-1365" y="-108" as="sourcePoint" />
            <mxPoint x="-335" y="-108" as="targetPoint" />
          </mxGeometry>
        </mxCell>
        <mxCell id="Zucph9kWZfhHKC2yXSaP-197" value="" style="endArrow=none;html=1;rounded=0;" parent="1" edge="1">
          <mxGeometry width="50" height="50" relative="1" as="geometry">
            <mxPoint x="-335" y="-108" as="sourcePoint" />
            <mxPoint x="-335" y="-579.9199999999998" as="targetPoint" />
          </mxGeometry>
        </mxCell>
        <mxCell id="Zucph9kWZfhHKC2yXSaP-198" value="" style="endArrow=classic;html=1;rounded=0;" parent="1" edge="1">
          <mxGeometry width="50" height="50" relative="1" as="geometry">
            <mxPoint x="-335" y="-578" as="sourcePoint" />
            <mxPoint x="-297" y="-579.9200000000001" as="targetPoint" />
          </mxGeometry>
        </mxCell>
        <mxCell id="Zucph9kWZfhHKC2yXSaP-199" value="" style="endArrow=classic;html=1;rounded=0;entryX=0.007;entryY=0.47;entryDx=0;entryDy=0;entryPerimeter=0;" parent="1" edge="1">
          <mxGeometry width="50" height="50" relative="1" as="geometry">
            <mxPoint x="-815" y="-790" as="sourcePoint" />
            <mxPoint x="-297" y="-788" as="targetPoint" />
          </mxGeometry>
        </mxCell>
        <mxCell id="Zucph9kWZfhHKC2yXSaP-200" value="&lt;div&gt;out = in;&lt;br&gt;&lt;br&gt;&lt;/div&gt;&lt;div&gt;if (flush_req)&lt;br&gt;&lt;/div&gt;&amp;nbsp;out = 0;" style="ellipse;whiteSpace=wrap;html=1;aspect=fixed;" parent="1" vertex="1">
          <mxGeometry x="-905" y="-838" width="90" height="90" as="geometry" />
        </mxCell>
        <mxCell id="Zucph9kWZfhHKC2yXSaP-201" value="" style="endArrow=none;html=1;rounded=0;entryX=0.007;entryY=0.47;entryDx=0;entryDy=0;entryPerimeter=0;" parent="1" edge="1">
          <mxGeometry width="50" height="50" relative="1" as="geometry">
            <mxPoint x="-1405" y="-798" as="sourcePoint" />
            <mxPoint x="-905" y="-792" as="targetPoint" />
          </mxGeometry>
        </mxCell>
        <mxCell id="Zucph9kWZfhHKC2yXSaP-202" value="valid_i" style="text;html=1;align=center;verticalAlign=middle;whiteSpace=wrap;rounded=0;" parent="1" vertex="1">
          <mxGeometry x="-1405" y="-817.9999999999999" width="40" height="13" as="geometry" />
        </mxCell>
      </root>
    </mxGraphModel>
  </diagram>
</mxfile>
